<?xml version="1.0" standalone="no"?>
<!DOCTYPE svg PUBLIC "-//W3C//DTD SVG 20010904//EN"
 "http://www.w3.org/TR/2001/REC-SVG-20010904/DTD/svg10.dtd">
<svg version="1.0" xmlns="http://www.w3.org/2000/svg"
 width="322.000000pt" height="319.000000pt" viewBox="0 0 322.000000 319.000000"
 preserveAspectRatio="xMidYMid meet">

<g transform="translate(0.000000,319.000000) scale(0.100000,-0.100000)"
fill="#000000" stroke="none">
<path d="M918 2693 l-288 -115 0 -1084 0 -1084 1000 0 1000 0 0 1084 c0 858
-3 1085 -12 1089 -7 3 -138 55 -290 116 l-277 111 -423 -1 -423 0 -287 -116z
m612 -475 c0 -215 -2 -389 -4 -387 -6 6 -256 758 -256 769 0 6 52 10 130 10
l130 0 0 -392z m460 382 c0 -11 -250 -763 -256 -769 -2 -2 -4 172 -4 387 l0
392 130 0 c78 0 130 -4 130 -10z m-910 -197 c60 -43 110 -83 110 -88 0 -6 -36
-54 -80 -108 l-80 -97 250 -300 250 -299 0 -451 0 -450 -350 0 -350 0 2 917 3
917 55 22 c30 12 61 20 68 18 7 -2 62 -39 122 -81z m1308 56 l42 -18 0 -916 0
-915 -350 0 -350 0 0 450 0 451 250 299 250 300 -80 97 c-44 54 -80 102 -80
108 0 5 53 47 117 93 125 88 118 86 201 51z"/>
<path d="M1881 1296 c-90 -50 -50 -186 55 -186 35 0 94 59 94 94 0 80 -80 130
-149 92z"/>
<path d="M1881 896 c-90 -50 -50 -186 55 -186 35 0 94 59 94 94 0 80 -80 130
-149 92z"/>
</g>
</svg>
