<?xml version="1.0" standalone="no"?>
<!DOCTYPE svg PUBLIC "-//W3C//DTD SVG 20010904//EN"
 "http://www.w3.org/TR/2001/REC-SVG-20010904/DTD/svg10.dtd">
<svg version="1.0" xmlns="http://www.w3.org/2000/svg"
 width="257.000000pt" height="268.000000pt" viewBox="0 0 257.000000 268.000000"
 preserveAspectRatio="xMidYMid meet">

<g transform="translate(0.000000,268.000000) scale(0.100000,-0.100000)"
fill="#000000" stroke="none">
<path d="M1130 2656 c-100 -31 -143 -50 -210 -96 -117 -79 -213 -218 -241
-349 -18 -83 -7 -262 21 -342 l23 -66 -24 -32 c-49 -67 -23 -222 48 -280 30
-25 41 -44 60 -112 24 -84 56 -147 105 -210 25 -33 28 -44 28 -115 -1 -83 -16
-142 -46 -175 -9 -10 -15 -21 -12 -24 3 -3 78 -37 168 -75 216 -93 221 -93
441 -5 89 36 164 67 167 70 3 3 -2 13 -10 22 -32 37 -47 82 -54 164 l-6 86 35
49 c47 66 93 165 109 232 10 46 18 58 45 75 49 28 75 87 81 178 3 57 0 83 -12
107 -9 18 -21 32 -26 32 -5 0 3 28 17 63 52 127 41 341 -26 483 -57 121 -149
195 -269 216 l-69 12 -32 58 -32 58 -102 -1 c-77 0 -120 -6 -177 -23z"/>
<path d="M680 739 c-36 -17 -94 -42 -130 -56 -396 -157 -549 -317 -550 -573 0
-46 5 -81 12 -88 9 -9 143 -12 540 -12 l527 0 11 38 c5 20 34 120 63 221 l53
185 -29 72 -29 72 -191 82 c-106 45 -196 84 -202 85 -5 2 -39 -10 -75 -26z"/>
<path d="M1593 679 l-201 -81 -29 -72 -29 -71 53 -185 c29 -102 57 -202 63
-222 l11 -38 528 0 c499 0 529 1 544 18 22 24 22 82 1 175 -21 92 -69 179
-136 243 -95 91 -176 137 -428 241 -85 35 -159 66 -165 68 -5 3 -101 -32 -212
-76z"/>
</g>
</svg>
